<?xml version="1.0" encoding="UTF-8" standalone="no"?>
<!DOCTYPE svg PUBLIC "-//W3C//DTD SVG 1.1//EN"
 "http://www.w3.org/Graphics/SVG/1.1/DTD/svg11.dtd">
<!-- Generated by graphviz version 2.43.0 (0)
 -->
<!-- Title: CFG for &#39;parse_hex&#39; function Pages: 1 -->
<svg width="942pt" height="1183pt"
 viewBox="0.00 0.00 942.00 1183.00" xmlns="http://www.w3.org/2000/svg" xmlns:xlink="http://www.w3.org/1999/xlink">
<g id="graph0" class="graph" transform="scale(1 1) rotate(0) translate(4 1179)">
<title>CFG for &#39;parse_hex&#39; function</title>
<!--<polygon fill="white" stroke="transparent" points="-4,4 -4,-1179 938,-1179 938,4 -4,4"/>
<text text-anchor="middle" x="467" y="-7.8" font-family="Times,serif" font-size="14.00">CFG for &#39;parse_hex&#39; function</text>-->
<!-- Node0x1599530 -->
<g id="node1" class="node">
<title>Node0x1599530</title>
<polygon fill="#d6dce4" fill-opacity="0.439216" stroke="#3d50c3" points="0,-1121.5 0,-1174.5 443,-1174.5 443,-1121.5 0,-1121.5"/>
<text text-anchor="start" x="8" y="-1159.3" font-family="Times,serif" font-size="14.00">start:</text>
<text text-anchor="start" x="8" y="-1144.3" font-family="Times,serif" font-size="14.00"> %0 = getelementptr inbounds i8, ptr %data.0, i64 %data.1</text>
<text text-anchor="start" x="8" y="-1129.3" font-family="Times,serif" font-size="14.00"> br label %bb1</text>
</g>
<!-- Node0x1599680 -->
<g id="node2" class="node">
<title>Node0x1599680</title>
<polygon fill="#b70d28" fill-opacity="0.439216" stroke="#b70d28" points="1.5,-978.5 1.5,-1084.5 441.5,-1084.5 441.5,-978.5 1.5,-978.5"/>
<text text-anchor="start" x="9.5" y="-1069.3" font-family="Times,serif" font-size="14.00">bb1: </text>
<text text-anchor="start" x="9.5" y="-1054.3" font-family="Times,serif" font-size="14.00"> %iter.sroa.5.0 = phi ptr [ %data.0, %start ], [ %1, %bb17 ]</text>
<text text-anchor="start" x="9.5" y="-1039.3" font-family="Times,serif" font-size="14.00"> %val.0 = phi i64 [ 0, %start ], [ %15, %bb17 ]</text>
<text text-anchor="start" x="9.5" y="-1024.3" font-family="Times,serif" font-size="14.00"> %_10.i.i = icmp eq ptr %iter.sroa.5.0, %0</text>
<text text-anchor="start" x="9.5" y="-1009.3" font-family="Times,serif" font-size="14.00"> br i1 %_10.i.i, label %bb26, label %bb2</text>
<polyline fill="none" stroke="#b70d28" points="1.5,-1001.5 441.5,-1001.5 "/>
<text text-anchor="middle" x="111.5" y="-986.3" font-family="Times,serif" font-size="14.00">T</text>
<polyline fill="none" stroke="#b70d28" points="221.5,-978.5 221.5,-1001.5 "/>
<text text-anchor="middle" x="331.5" y="-986.3" font-family="Times,serif" font-size="14.00">F</text>
</g>
<!-- Node0x1599530&#45;&gt;Node0x1599680 -->
<g id="edge1" class="edge">
<title>Node0x1599530&#45;&gt;Node0x1599680</title>
<path fill="none" stroke="black" d="M221.5,-1121.3C221.5,-1113.36 221.5,-1104.24 221.5,-1094.94"/>
<polygon fill="black" stroke="black" points="225,-1094.82 221.5,-1084.82 218,-1094.82 225,-1094.82"/>
</g>
<!-- Node0x159a0c0 -->
<g id="node3" class="node">
<title>Node0x159a0c0</title>
<polygon fill="#d6dce4" fill-opacity="0.439216" stroke="#3d50c3" points="240,-23.5 240,-106.5 769,-106.5 769,-23.5 240,-23.5"/>
<text text-anchor="start" x="248" y="-91.3" font-family="Times,serif" font-size="14.00">bb26: </text>
<text text-anchor="start" x="248" y="-76.3" font-family="Times,serif" font-size="14.00"> %.sroa.0.1 = phi i64 [ 0, %bb17 ], [ 0, %bb14 ], [ 0, %bb8 ], [ 1, %bb1 ]</text>
<text text-anchor="start" x="248" y="-61.3" font-family="Times,serif" font-size="14.00"> %16 = insertvalue { i64, i64 } undef, i64 %.sroa.0.1, 0</text>
<text text-anchor="start" x="248" y="-46.3" font-family="Times,serif" font-size="14.00"> %17 = insertvalue { i64, i64 } %16, i64 %val.0, 1</text>
<text text-anchor="start" x="248" y="-31.3" font-family="Times,serif" font-size="14.00"> ret { i64, i64 } %17</text>
</g>
<!-- Node0x1599680&#45;&gt;Node0x159a0c0 -->
<g id="edge2" class="edge">
<title>Node0x1599680:s0&#45;&gt;Node0x159a0c0</title>
<path fill="none" stroke="black" d="M111.5,-978C111.5,-865.11 111.5,-836.89 111.5,-724 111.5,-724 111.5,-724 111.5,-368.5 111.5,-267.92 63.74,-218.22 130.5,-143 146.68,-124.77 184.41,-110.67 229.98,-99.81"/>
<polygon fill="black" stroke="black" points="230.86,-103.2 239.82,-97.55 229.29,-96.38 230.86,-103.2"/>
</g>
<!-- Node0x159a190 -->
<g id="node4" class="node">
<title>Node0x159a190</title>
<polygon fill="#bb1b2c" fill-opacity="0.439216" stroke="#b70d28" points="213.5,-805.5 213.5,-941.5 735.5,-941.5 735.5,-805.5 213.5,-805.5"/>
<text text-anchor="start" x="221.5" y="-926.3" font-family="Times,serif" font-size="14.00">bb2: </text>
<text text-anchor="start" x="221.5" y="-911.3" font-family="Times,serif" font-size="14.00"> %1 = getelementptr inbounds i8, ptr %iter.sroa.5.0, i64 1</text>
<text text-anchor="start" x="221.5" y="-896.3" font-family="Times,serif" font-size="14.00"> %v.i.i = load i8, ptr %iter.sroa.5.0, align 1, !alias.scope !2, !noalias !5,</text>
<text text-anchor="start" x="221.5" y="-881.3" font-family="Times,serif" font-size="14.00">... !noundef !8</text>
<text text-anchor="start" x="221.5" y="-866.3" font-family="Times,serif" font-size="14.00"> %2 = add i8 %v.i.i, &#45;48</text>
<text text-anchor="start" x="221.5" y="-851.3" font-family="Times,serif" font-size="14.00"> %3 = icmp ult i8 %2, 10</text>
<text text-anchor="start" x="221.5" y="-836.3" font-family="Times,serif" font-size="14.00"> br i1 %3, label %bb14, label %bb6</text>
<polyline fill="none" stroke="#b70d28" points="213.5,-828.5 735.5,-828.5 "/>
<text text-anchor="middle" x="344" y="-813.3" font-family="Times,serif" font-size="14.00">T</text>
<polyline fill="none" stroke="#b70d28" points="474.5,-805.5 474.5,-828.5 "/>
<text text-anchor="middle" x="605" y="-813.3" font-family="Times,serif" font-size="14.00">F</text>
</g>
<!-- Node0x1599680&#45;&gt;Node0x159a190 -->
<g id="edge3" class="edge">
<title>Node0x1599680:s1&#45;&gt;Node0x159a190</title>
<path fill="none" stroke="black" d="M442.5,-989.5C462.81,-989.5 472.26,-972.65 476.18,-951.86"/>
<polygon fill="black" stroke="black" points="479.68,-952.13 477.66,-941.73 472.75,-951.12 479.68,-952.13"/>
</g>
<!-- Node0x159b240 -->
<g id="node5" class="node">
<title>Node0x159b240</title>
<polygon fill="#bb1b2c" fill-opacity="0.439216" stroke="#b70d28" points="213.5,-316.5 213.5,-422.5 763.5,-422.5 763.5,-316.5 213.5,-316.5"/>
<text text-anchor="start" x="221.5" y="-407.3" font-family="Times,serif" font-size="14.00">bb14: </text>
<text text-anchor="start" x="221.5" y="-392.3" font-family="Times,serif" font-size="14.00"> %digit.0 = phi i8 [ %10, %bb12 ], [ %11, %bb13 ], [ %v.i.i, %bb2 ]</text>
<text text-anchor="start" x="221.5" y="-377.3" font-family="Times,serif" font-size="14.00"> %6 = tail call { i64, i1 } @llvm.umul.with.overflow.i64(i64 %val.0, i64 16)</text>
<text text-anchor="start" x="221.5" y="-362.3" font-family="Times,serif" font-size="14.00"> %7 = extractvalue { i64, i1 } %6, 1</text>
<text text-anchor="start" x="221.5" y="-347.3" font-family="Times,serif" font-size="14.00"> br i1 %7, label %bb26, label %bb17</text>
<polyline fill="none" stroke="#b70d28" points="213.5,-339.5 763.5,-339.5 "/>
<text text-anchor="middle" x="351" y="-324.3" font-family="Times,serif" font-size="14.00">T</text>
<polyline fill="none" stroke="#b70d28" points="488.5,-316.5 488.5,-339.5 "/>
<text text-anchor="middle" x="626" y="-324.3" font-family="Times,serif" font-size="14.00">F</text>
</g>
<!-- Node0x159a190&#45;&gt;Node0x159b240 -->
<g id="edge4" class="edge">
<title>Node0x159a190:s0&#45;&gt;Node0x159b240</title>
<path fill="none" stroke="black" d="M343.5,-805C343.5,-650.99 287.76,-593.66 362.5,-459 368.54,-448.12 376.55,-438.27 385.61,-429.43"/>
<polygon fill="black" stroke="black" points="388.09,-431.91 393.09,-422.57 383.36,-426.75 388.09,-431.91"/>
</g>
<!-- Node0x159b290 -->
<g id="node6" class="node">
<title>Node0x159b290</title>
<polygon fill="#e8765c" fill-opacity="0.439216" stroke="#3d50c3" points="471.5,-677.5 471.5,-768.5 739.5,-768.5 739.5,-677.5 471.5,-677.5"/>
<text text-anchor="start" x="479.5" y="-753.3" font-family="Times,serif" font-size="14.00">bb6: </text>
<text text-anchor="start" x="479.5" y="-738.3" font-family="Times,serif" font-size="14.00"> %4 = add i8 %v.i.i, &#45;97</text>
<text text-anchor="start" x="479.5" y="-723.3" font-family="Times,serif" font-size="14.00"> %5 = icmp ult i8 %4, 6</text>
<text text-anchor="start" x="479.5" y="-708.3" font-family="Times,serif" font-size="14.00"> br i1 %5, label %bb12, label %bb8</text>
<polyline fill="none" stroke="#3d50c3" points="471.5,-700.5 739.5,-700.5 "/>
<text text-anchor="middle" x="538.5" y="-685.3" font-family="Times,serif" font-size="14.00">T</text>
<polyline fill="none" stroke="#3d50c3" points="605.5,-677.5 605.5,-700.5 "/>
<text text-anchor="middle" x="672.5" y="-685.3" font-family="Times,serif" font-size="14.00">F</text>
</g>
<!-- Node0x159a190&#45;&gt;Node0x159b290 -->
<g id="edge5" class="edge">
<title>Node0x159a190:s1&#45;&gt;Node0x159b290</title>
<path fill="none" stroke="black" d="M605.5,-805C605.5,-796.51 605.5,-787.52 605.5,-778.74"/>
<polygon fill="black" stroke="black" points="609,-778.56 605.5,-768.56 602,-778.56 609,-778.56"/>
</g>
<!-- Node0x159b240&#45;&gt;Node0x159a0c0 -->
<g id="edge8" class="edge">
<title>Node0x159b240:s0&#45;&gt;Node0x159a0c0</title>
<path fill="none" stroke="black" d="M350.5,-316C350.5,-235.6 656.55,-339.61 710.5,-280 751.36,-234.85 745.21,-193.03 710.5,-143 702.19,-131.02 691.77,-120.9 680.07,-112.35"/>
<polygon fill="black" stroke="black" points="682,-109.44 671.77,-106.69 678.05,-115.22 682,-109.44"/>
</g>
<!-- Node0x15997d0 -->
<g id="node9" class="node">
<title>Node0x15997d0</title>
<polygon fill="#bb1b2c" fill-opacity="0.439216" stroke="#b70d28" points="139.5,-143.5 139.5,-279.5 701.5,-279.5 701.5,-143.5 139.5,-143.5"/>
<text text-anchor="start" x="147.5" y="-264.3" font-family="Times,serif" font-size="14.00">bb17: </text>
<text text-anchor="start" x="147.5" y="-249.3" font-family="Times,serif" font-size="14.00"> %12 = extractvalue { i64, i1 } %6, 0</text>
<text text-anchor="start" x="147.5" y="-234.3" font-family="Times,serif" font-size="14.00"> %_35 = zext i8 %digit.0 to i64</text>
<text text-anchor="start" x="147.5" y="-219.3" font-family="Times,serif" font-size="14.00"> %13 = tail call { i64, i1 } @llvm.uadd.with.overflow.i64(i64 %12, i64 %_35)</text>
<text text-anchor="start" x="147.5" y="-204.3" font-family="Times,serif" font-size="14.00"> %14 = extractvalue { i64, i1 } %13, 1</text>
<text text-anchor="start" x="147.5" y="-189.3" font-family="Times,serif" font-size="14.00"> %15 = extractvalue { i64, i1 } %13, 0</text>
<text text-anchor="start" x="147.5" y="-174.3" font-family="Times,serif" font-size="14.00"> br i1 %14, label %bb26, label %bb1</text>
<polyline fill="none" stroke="#b70d28" points="139.5,-166.5 701.5,-166.5 "/>
<text text-anchor="middle" x="280" y="-151.3" font-family="Times,serif" font-size="14.00">T</text>
<polyline fill="none" stroke="#b70d28" points="420.5,-143.5 420.5,-166.5 "/>
<text text-anchor="middle" x="561" y="-151.3" font-family="Times,serif" font-size="14.00">F</text>
</g>
<!-- Node0x159b240&#45;&gt;Node0x15997d0 -->
<g id="edge9" class="edge">
<title>Node0x159b240:s1&#45;&gt;Node0x15997d0</title>
<path fill="none" stroke="black" d="M626.5,-316C626.5,-305.97 624.52,-296.91 620.96,-288.73"/>
<polygon fill="black" stroke="black" points="624.04,-287.07 616.28,-279.86 617.85,-290.33 624.04,-287.07"/>
</g>
<!-- Node0x159b630 -->
<g id="node7" class="node">
<title>Node0x159b630</title>
<polygon fill="#f7b99e" fill-opacity="0.439216" stroke="#3d50c3" points="371.5,-459.5 371.5,-512.5 595.5,-512.5 595.5,-459.5 371.5,-459.5"/>
<text text-anchor="start" x="379.5" y="-497.3" font-family="Times,serif" font-size="14.00">bb12: </text>
<text text-anchor="start" x="379.5" y="-482.3" font-family="Times,serif" font-size="14.00"> %10 = add nsw i8 %v.i.i, &#45;87</text>
<text text-anchor="start" x="379.5" y="-467.3" font-family="Times,serif" font-size="14.00"> br label %bb14</text>
</g>
<!-- Node0x159b290&#45;&gt;Node0x159b630 -->
<g id="edge6" class="edge">
<title>Node0x159b290:s0&#45;&gt;Node0x159b630</title>
<path fill="none" stroke="black" d="M538.5,-677C538.5,-621.2 516.34,-559.7 500.16,-522.2"/>
<polygon fill="black" stroke="black" points="503.22,-520.48 495.98,-512.75 496.82,-523.31 503.22,-520.48"/>
</g>
<!-- Node0x159b6a0 -->
<g id="node8" class="node">
<title>Node0x159b6a0</title>
<polygon fill="#f7b99e" fill-opacity="0.439216" stroke="#3d50c3" points="657,-549.5 657,-640.5 934,-640.5 934,-549.5 657,-549.5"/>
<text text-anchor="start" x="665" y="-625.3" font-family="Times,serif" font-size="14.00">bb8: </text>
<text text-anchor="start" x="665" y="-610.3" font-family="Times,serif" font-size="14.00"> %8 = add i8 %v.i.i, &#45;65</text>
<text text-anchor="start" x="665" y="-595.3" font-family="Times,serif" font-size="14.00"> %9 = icmp ult i8 %8, 6</text>
<text text-anchor="start" x="665" y="-580.3" font-family="Times,serif" font-size="14.00"> br i1 %9, label %bb13, label %bb26</text>
<polyline fill="none" stroke="#3d50c3" points="657,-572.5 934,-572.5 "/>
<text text-anchor="middle" x="726" y="-557.3" font-family="Times,serif" font-size="14.00">T</text>
<polyline fill="none" stroke="#3d50c3" points="795,-549.5 795,-572.5 "/>
<text text-anchor="middle" x="864.5" y="-557.3" font-family="Times,serif" font-size="14.00">F</text>
</g>
<!-- Node0x159b290&#45;&gt;Node0x159b6a0 -->
<g id="edge7" class="edge">
<title>Node0x159b290:s1&#45;&gt;Node0x159b6a0</title>
<path fill="none" stroke="black" d="M740.5,-689C761.89,-689 775.14,-670.55 783.25,-650.08"/>
<polygon fill="black" stroke="black" points="786.57,-651.19 786.63,-640.59 779.98,-648.84 786.57,-651.19"/>
</g>
<!-- Node0x159b630&#45;&gt;Node0x159b240 -->
<g id="edge12" class="edge">
<title>Node0x159b630&#45;&gt;Node0x159b240</title>
<path fill="none" stroke="black" d="M484.62,-459.3C484.97,-451.36 485.37,-442.24 485.77,-432.94"/>
<polygon fill="black" stroke="black" points="489.28,-432.96 486.22,-422.82 482.28,-432.66 489.28,-432.96"/>
</g>
<!-- Node0x159b6a0&#45;&gt;Node0x159a0c0 -->
<g id="edge11" class="edge">
<title>Node0x159b6a0:s1&#45;&gt;Node0x159a0c0</title>
<path fill="none" stroke="black" d="M864.5,-549C864.5,-419.66 774.54,-178.63 738.5,-143 725.86,-130.51 711.16,-120.04 695.4,-111.27"/>
<polygon fill="black" stroke="black" points="697.02,-108.16 686.54,-106.57 693.74,-114.35 697.02,-108.16"/>
</g>
<!-- Node0x159b900 -->
<g id="node10" class="node">
<title>Node0x159b900</title>
<polygon fill="#f7b99e" fill-opacity="0.439216" stroke="#3d50c3" points="613.5,-459.5 613.5,-512.5 837.5,-512.5 837.5,-459.5 613.5,-459.5"/>
<text text-anchor="start" x="621.5" y="-497.3" font-family="Times,serif" font-size="14.00">bb13: </text>
<text text-anchor="start" x="621.5" y="-482.3" font-family="Times,serif" font-size="14.00"> %11 = add nsw i8 %v.i.i, &#45;55</text>
<text text-anchor="start" x="621.5" y="-467.3" font-family="Times,serif" font-size="14.00"> br label %bb14</text>
</g>
<!-- Node0x159b6a0&#45;&gt;Node0x159b900 -->
<g id="edge10" class="edge">
<title>Node0x159b6a0:s0&#45;&gt;Node0x159b900</title>
<path fill="none" stroke="black" d="M725.5,-549C725.5,-540.51 725.5,-531.36 725.5,-522.76"/>
<polygon fill="black" stroke="black" points="729,-522.64 725.5,-512.64 722,-522.64 729,-522.64"/>
</g>
<!-- Node0x15997d0&#45;&gt;Node0x1599680 -->
<g id="edge15" class="edge">
<title>Node0x15997d0:s1&#45;&gt;Node0x1599680</title>
<path fill="none" stroke="black" d="M561.5,-142.5C561.5,-126.94 690.54,-132.46 701.5,-143.5 706.84,-148.88 706.66,-274.45 701.5,-280 626.08,-361.08 284.34,-239.27 204.5,-316 150,-368.38 185.5,-409.42 185.5,-485 185.5,-724 185.5,-724 185.5,-724 185.5,-821.26 191.09,-845.67 204.5,-942 205.69,-950.56 207.16,-959.54 208.73,-968.37"/>
<polygon fill="black" stroke="black" points="205.29,-969.03 210.54,-978.24 212.18,-967.77 205.29,-969.03"/>
</g>
<!-- Node0x15997d0&#45;&gt;Node0x159a0c0 -->
<g id="edge14" class="edge">
<title>Node0x15997d0:s0&#45;&gt;Node0x159a0c0</title>
<path fill="none" stroke="black" d="M279.5,-143C279.5,-130.75 291.59,-120.04 310.17,-110.81"/>
<polygon fill="black" stroke="black" points="311.84,-113.9 319.47,-106.54 308.92,-107.54 311.84,-113.9"/>
</g>
<!-- Node0x159b900&#45;&gt;Node0x159b240 -->
<g id="edge13" class="edge">
<title>Node0x159b900&#45;&gt;Node0x159b240</title>
<path fill="none" stroke="black" d="M672.61,-459.45C652.74,-449.85 629.27,-438.51 605.86,-427.2"/>
<polygon fill="black" stroke="black" points="607.08,-423.9 596.55,-422.7 604.03,-430.2 607.08,-423.9"/>
</g>
</g>
</svg>
