<?xml version="1.0" encoding="UTF-8" standalone="no"?>
<svg
   xmlns:dc="http://purl.org/dc/elements/1.1/"
   xmlns:cc="http://creativecommons.org/ns#"
   xmlns:rdf="http://www.w3.org/1999/02/22-rdf-syntax-ns#"
   xmlns:svg="http://www.w3.org/2000/svg"
   xmlns="http://www.w3.org/2000/svg"
   xmlns:sodipodi="http://sodipodi.sourceforge.net/DTD/sodipodi-0.dtd"
   xmlns:inkscape="http://www.inkscape.org/namespaces/inkscape"
   viewBox="0 0 300 300"
   version="1.1"
   id="svg62"
   sodipodi:docname="godbolt.svg"
   width="300"
   height="300"
   inkscape:version="1.0.2 (e86c870879, 2021-01-15)">
  <metadata
     id="metadata68">
    <rdf:RDF>
      <cc:Work
         rdf:about="">
        <dc:format>image/svg+xml</dc:format>
        <dc:type
           rdf:resource="http://purl.org/dc/dcmitype/StillImage" />
        <dc:title></dc:title>
      </cc:Work>
    </rdf:RDF>
  </metadata>
  <defs
     id="defs66" />
  <sodipodi:namedview
     pagecolor="#ffffff"
     bordercolor="#666666"
     borderopacity="1"
     objecttolerance="10"
     gridtolerance="10"
     guidetolerance="10"
     inkscape:pageopacity="0"
     inkscape:pageshadow="2"
     inkscape:window-width="2182"
     inkscape:window-height="1346"
     id="namedview64"
     showgrid="false"
     inkscape:zoom="2.2427293"
     inkscape:cx="237.86801"
     inkscape:cy="62.910823"
     inkscape:window-x="1456"
     inkscape:window-y="34"
     inkscape:window-maximized="0"
     inkscape:current-layer="svg62"
     lock-margins="false"
     fit-margin-left="0"
     fit-margin-top="0" />
  <path
     class="logo-pri"
     fill="#67c52a"
     d="m 241.46622,206.57669 c -1.1,-2.1 -1.1,-4.6 0,-6.6 1.4,-2.5 2.6,-5 3.8,-7.6 0.8,-1.9 -0.5,-4 -2.6,-4 h -22.5 c -2.3,0 -4.5,1.2 -5.7,3.1 -2.9,4.4 -6.3,8.7 -10.1,12.5 -14.5,14.5 -33.7,22.4 -54.1,22.4 -20.5,0 -39.7,-8 -54.100004,-22.4 -14.6,-14.4 -22.5,-33.6 -22.5,-54.1 0,-20.5 8,-39.7 22.4,-54.099997 14.500004,-14.5 33.700004,-22.4 54.100004,-22.4 20.5,0 39.7,8 54.1,22.4 3.9,3.9 7.2,8.099997 10.1,12.499997 1.3,1.9 3.4,3.1 5.7,3.1 h 22.6 c 2.1,0 3.4,-2.1 2.6,-4 -1.2,-2.6 -2.4,-5.1 -3.8,-7.599997 -1.1,-2.1 -1.1,-4.6 0,-6.6 l 7.6,-13.8 c 1.5,-2.7 1,-6 -1.2,-8.2 l -19.1,-19.1 c -2.2,-2.2 -5.5,-2.6 -8.2,-1.2 l -13.9,7.7 c -2.1,1.1 -4.6,1.1 -6.6,0 -6.6,-3.6 -13.6,-6.5 -20.8,-8.6 -2.3,-0.7 -4.1,-2.4 -4.7,-4.7 l -4.4,-15.2 c -0.9,-2.9 -3.5,-5 -6.6,-5 h -27 c -3.1,0 -5.8,2 -6.6,5 l -4.4,15.2 c -0.7,2.3 -2.4,4 -4.7,4.7 -7.2,2.1 -14.2,5 -20.8,8.6 -2.100004,1.1 -4.600004,1.2 -6.600004,0 l -13.9,-7.7 c -2.7,-1.5 -6,-1 -8.2,1.2 l -19.1,19.1 c -2.2,2.2 -2.6,5.5 -1.2,8.2 l 7.7,13.9 c 1.1,2.1 1.1,4.6 0,6.6 -3.6,6.599997 -6.5,13.599997 -8.6,20.799997 -0.7,2.3 -2.4,4.1 -4.7,4.7 l -15.2,4.4 c -2.9,0.9 -5,3.5 -5,6.6 v 27 c 0,3.1 2,5.8 5,6.6 l 15.2,4.4 c 2.3,0.7 4,2.4 4.7,4.7 2.1,7.2 5,14.2 8.6,20.8 1.1,2.1 1.2,4.6 0,6.6 l -7.7,13.9 c -1.5,2.7 -1,6 1.2,8.2 l 19.1,19.1 c 2.2,2.2 5.5,2.6 8.2,1.2 l 13.9,-7.7 c 2.1,-1.1 4.6,-1.1 6.600004,0 6.6,3.6 13.6,6.5 20.8,8.6 2.3,0.7 4.1,2.4 4.7,4.7 l 4.4,15.2 c 0.9,2.9 3.5,5 6.6,5 h 27 c 3.1,0 5.8,-2 6.6,-5 l 4.4,-15.2 c 0.7,-2.3 2.4,-4 4.7,-4.7 7.2,-2.1 14.2,-5 20.8,-8.6 2.1,-1.1 4.6,-1.2 6.6,0 l 13.9,7.7 c 2.7,1.5 6,1 8.2,-1.2 l 19.1,-19.1 c 2.2,-2.2 2.6,-5.5 1.2,-8.2 z"
     id="path58"
     sodipodi:nodetypes="cccsscsscsssscssccccssccccccssccccccssccccccssccccccssccccccssccccccsscc" />
  <path
     class="logo-sec"
     fill="#3c3c3f"
     d="m 104.36622,110.97669 h 92.7 v 17.2 h -92.7 z m 0,30.6 h 76.4 v 17.2 h -76.4 z m 0,30.6 h 92.7 v 17.2 h -92.7 z"
     id="path60"
     sodipodi:nodetypes="ccccccccccccccc"
     style="fill:#b3b3b3" />
</svg>
