<?xml version="1.0" encoding="UTF-8" standalone="no"?>
<!DOCTYPE svg PUBLIC "-//W3C//DTD SVG 1.1//EN"
 "http://www.w3.org/Graphics/SVG/1.1/DTD/svg11.dtd">
<!-- Generated by graphviz version 2.43.0 (0)
 -->
<!-- Title: CFG for &#39;safe_div&#39; function Pages: 1 -->
<svg width="327pt" height="198pt"
 viewBox="0.00 0.00 327.00 198.00" xmlns="http://www.w3.org/2000/svg" xmlns:xlink="http://www.w3.org/1999/xlink">
<g id="graph0" class="graph" transform="scale(1 1) rotate(0) translate(4 194)">
<title>CFG for &#39;safe_div&#39; function</title>
<!--<polygon fill="white" stroke="transparent" points="-4,4 -4,-194 323,-194 323,4 -4,4"/>
<text text-anchor="middle" x="159.5" y="-7.8" font-family="Times,serif" font-size="14.00">CFG for &#39;safe_div&#39; function</text>-->
<!-- Node0x1dd3260 -->
<g id="node1" class="node">
<title>Node0x1dd3260</title>
<polygon fill="#b70d28" fill-opacity="0.439216" stroke="#b70d28" points="0,-113.5 0,-189.5 305,-189.5 305,-113.5 0,-113.5"/>
<text text-anchor="start" x="8" y="-174.3" font-family="Times,serif" font-size="14.00">%0:</text>
<text text-anchor="start" x="8" y="-159.3" font-family="Times,serif" font-size="14.00"> %1 = icmp eq i64 %d, 0</text>
<text text-anchor="start" x="8" y="-144.3" font-family="Times,serif" font-size="14.00"> br i1 %1, label %iszero, label %nonzero</text>
<polyline fill="none" stroke="#b70d28" points="0,-136.5 305,-136.5 "/>
<text text-anchor="middle" x="76" y="-121.3" font-family="Times,serif" font-size="14.00">T</text>
<polyline fill="none" stroke="#b70d28" points="152,-113.5 152,-136.5 "/>
<text text-anchor="middle" x="228.5" y="-121.3" font-family="Times,serif" font-size="14.00">F</text>
</g>
<!-- Node0x1dd3950 -->
<g id="node2" class="node">
<title>Node0x1dd3950</title>
<polygon fill="#f7b396" fill-opacity="0.439216" stroke="#3d50c3" points="32,-31 32,-69 119,-69 119,-31 32,-31"/>
<text text-anchor="start" x="40" y="-53.8" font-family="Times,serif" font-size="14.00">iszero: </text>
<text text-anchor="start" x="40" y="-38.8" font-family="Times,serif" font-size="14.00"> ret i64 &#45;1</text>
</g>
<!-- Node0x1dd3260&#45;&gt;Node0x1dd3950 -->
<g id="edge1" class="edge">
<title>Node0x1dd3260:s0&#45;&gt;Node0x1dd3950</title>
<path fill="none" stroke="black" d="M75.5,-113C75.5,-102.06 75.5,-90.02 75.5,-79.5"/>
<polygon fill="black" stroke="black" points="79,-79.18 75.5,-69.18 72,-79.18 79,-79.18"/>
</g>
<!-- Node0x1dd3a00 -->
<g id="node3" class="node">
<title>Node0x1dd3a00</title>
<polygon fill="#e8765c" fill-opacity="0.439216" stroke="#b70d28" points="138,-23.5 138,-76.5 319,-76.5 319,-23.5 138,-23.5"/>
<text text-anchor="start" x="146" y="-61.3" font-family="Times,serif" font-size="14.00">nonzero: </text>
<text text-anchor="start" x="146" y="-46.3" font-family="Times,serif" font-size="14.00"> %2 = udiv i64 %n, %d</text>
<text text-anchor="start" x="146" y="-31.3" font-family="Times,serif" font-size="14.00"> ret i64 %2</text>
</g>
<!-- Node0x1dd3260&#45;&gt;Node0x1dd3a00 -->
<g id="edge2" class="edge">
<title>Node0x1dd3260:s1&#45;&gt;Node0x1dd3a00</title>
<path fill="none" stroke="black" d="M228.5,-113C228.5,-104.51 228.5,-95.36 228.5,-86.76"/>
<polygon fill="black" stroke="black" points="232,-86.64 228.5,-76.64 225,-86.64 232,-86.64"/>
</g>
</g>
</svg>
